<?xml version="1.0" encoding="utf-8"?>
<!-- Generator: Adobe Illustrator 25.0.0, SVG Export Plug-In . SVG Version: 6.00 Build 0)  -->
<svg version="1.1" id="Шар_1" xmlns="http://www.w3.org/2000/svg" xmlns:xlink="http://www.w3.org/1999/xlink" x="0px" y="0px"
	 viewBox="0 0 600 400" style="enable-background:new 0 0 600 400;" xml:space="preserve">
<style type="text/css">
	.st0{fill:#FFFFFF;}
</style>
<rect width="600" height="400"/>
<path class="st0" d="M153.7,170.7L136.3,192l-2,2.5c1.1-0.6,2.4-1,3.7-1.3c1.3-0.3,2.7-0.5,4.2-0.5l0,0c2.2,0,4.4,0.4,6.5,1.1
	c2.1,0.7,3.9,1.8,5.5,3.3c1.6,1.5,2.9,3.3,3.9,5.5c1,2.2,1.5,4.7,1.5,7.7l0,0c0,2.7-0.5,5.3-1.5,7.7c-1,2.4-2.4,4.5-4.2,6.3
	c-1.8,1.8-4,3.2-6.5,4.2c-2.5,1-5.4,1.5-8.4,1.5l0,0c-3.1,0-5.9-0.5-8.4-1.5c-2.5-1-4.6-2.4-6.4-4.2c-1.8-1.8-3.1-4-4-6.5
	c-0.9-2.5-1.4-5.3-1.4-8.4l0,0c0-2.8,0.6-5.6,1.7-8.5c1.1-2.9,2.9-5.9,5.2-9l0,0l14-18.8c0.5-0.6,1.2-1.2,2.1-1.7
	c0.9-0.5,2-0.7,3.2-0.7l0,0H153.7z M138.6,221.8L138.6,221.8c1.6,0,3.1-0.3,4.4-0.8c1.3-0.5,2.5-1.3,3.4-2.3c1-1,1.7-2.1,2.2-3.4
	c0.5-1.3,0.8-2.7,0.8-4.3l0,0c0-1.7-0.3-3.2-0.8-4.5c-0.5-1.3-1.2-2.5-2.2-3.4c-0.9-0.9-2.1-1.6-3.4-2.1c-1.3-0.5-2.8-0.7-4.4-0.7
	l0,0c-1.6,0-3,0.3-4.3,0.8c-1.3,0.5-2.4,1.3-3.3,2.2c-0.9,1-1.6,2.1-2.1,3.4c-0.5,1.3-0.8,2.7-0.8,4.2l0,0c0,1.6,0.2,3.1,0.7,4.4
	c0.4,1.3,1.1,2.5,2,3.4c0.9,0.9,2,1.7,3.3,2.2C135.4,221.5,136.9,221.8,138.6,221.8z M207.1,200L207.1,200c0,5.1-0.5,9.5-1.6,13.3
	c-1.1,3.8-2.6,6.9-4.5,9.3c-1.9,2.5-4.2,4.3-6.9,5.5c-2.6,1.2-5.5,1.8-8.5,1.8l0,0c-3.1,0-5.9-0.6-8.5-1.8c-2.6-1.2-4.9-3-6.8-5.5
	c-1.9-2.5-3.4-5.6-4.5-9.3c-1.1-3.8-1.6-8.2-1.6-13.3l0,0c0-5.1,0.5-9.6,1.6-13.3c1.1-3.8,2.6-6.9,4.5-9.3c1.9-2.5,4.2-4.3,6.8-5.5
	c2.6-1.2,5.4-1.8,8.5-1.8l0,0c3,0,5.9,0.6,8.5,1.8s4.9,3,6.9,5.5c1.9,2.5,3.4,5.6,4.5,9.3C206.6,190.4,207.1,194.9,207.1,200z
	 M196.8,200L196.8,200c0-4.2-0.3-7.8-0.9-10.5c-0.6-2.8-1.4-5-2.5-6.6s-2.2-2.8-3.6-3.5c-1.4-0.7-2.8-1-4.2-1l0,0
	c-1.4,0-2.8,0.3-4.1,1c-1.3,0.7-2.5,1.8-3.6,3.5c-1,1.6-1.8,3.9-2.4,6.6s-0.9,6.3-0.9,10.5l0,0c0,4.2,0.3,7.8,0.9,10.5
	s1.4,5,2.4,6.6c1,1.6,2.2,2.8,3.6,3.5c1.3,0.7,2.7,1,4.1,1l0,0c1.5,0,2.9-0.3,4.2-1c1.3-0.7,2.5-1.8,3.6-3.5s1.9-3.9,2.5-6.6
	C196.5,207.8,196.8,204.2,196.8,200z M254.1,200L254.1,200c0,5.1-0.5,9.5-1.6,13.3c-1.1,3.8-2.6,6.9-4.5,9.3
	c-1.9,2.5-4.2,4.3-6.9,5.5c-2.6,1.2-5.5,1.8-8.5,1.8l0,0c-3.1,0-5.9-0.6-8.5-1.8c-2.6-1.2-4.9-3-6.8-5.5c-1.9-2.5-3.4-5.6-4.5-9.3
	c-1.1-3.8-1.6-8.2-1.6-13.3l0,0c0-5.1,0.5-9.6,1.6-13.3c1.1-3.8,2.6-6.9,4.5-9.3c1.9-2.5,4.2-4.3,6.8-5.5c2.6-1.2,5.4-1.8,8.5-1.8
	l0,0c3,0,5.9,0.6,8.5,1.8s4.9,3,6.9,5.5c1.9,2.5,3.4,5.6,4.5,9.3C253.6,190.4,254.1,194.9,254.1,200z M243.8,200L243.8,200
	c0-4.2-0.3-7.8-0.9-10.5c-0.6-2.8-1.4-5-2.5-6.6c-1-1.6-2.2-2.8-3.6-3.5c-1.4-0.7-2.8-1-4.2-1l0,0c-1.4,0-2.8,0.3-4.2,1
	c-1.3,0.7-2.5,1.8-3.6,3.5c-1,1.6-1.8,3.9-2.4,6.6c-0.6,2.8-0.9,6.3-0.9,10.5l0,0c0,4.2,0.3,7.8,0.9,10.5c0.6,2.8,1.4,5,2.4,6.6
	c1,1.6,2.2,2.8,3.6,3.5c1.3,0.7,2.7,1,4.2,1l0,0c1.5,0,2.9-0.3,4.2-1c1.3-0.7,2.5-1.8,3.6-3.5c1-1.6,1.9-3.9,2.5-6.6
	C243.5,207.8,243.8,204.2,243.8,200z M318.4,215.9l-5.3,5.2l-13.7-13.7l-13.9,13.8l-5.3-5.2l13.9-13.9l-13.2-13.2l5.3-5.3l13.2,13.2
	l13.1-13.1l5.4,5.3l-13.2,13.2L318.4,215.9z M353.5,207.2h17.8v-19.2c0-1.8,0.1-3.8,0.4-6l0,0L353.5,207.2z M380,207.2h7.4v5.8
	c0,0.5-0.2,1-0.5,1.4c-0.3,0.4-0.8,0.6-1.5,0.6l0,0H380v14.3h-8.7V215h-24.7c-0.7,0-1.3-0.2-1.8-0.6c-0.5-0.4-0.8-0.9-1-1.6l0,0
	l-1-5.1l27.7-37.1h9.5V207.2z M434.4,200L434.4,200c0,5.1-0.5,9.5-1.6,13.3c-1.1,3.8-2.6,6.9-4.5,9.3c-1.9,2.5-4.2,4.3-6.8,5.5
	c-2.6,1.2-5.5,1.8-8.5,1.8l0,0c-3,0-5.9-0.6-8.5-1.8c-2.6-1.2-4.9-3-6.8-5.5c-1.9-2.5-3.4-5.6-4.5-9.3c-1.1-3.8-1.6-8.2-1.6-13.3
	l0,0c0-5.1,0.5-9.6,1.6-13.3c1.1-3.8,2.6-6.9,4.5-9.3c1.9-2.5,4.2-4.3,6.8-5.5s5.4-1.8,8.5-1.8l0,0c3.1,0,5.9,0.6,8.5,1.8
	c2.6,1.2,4.9,3,6.8,5.5c1.9,2.5,3.4,5.6,4.5,9.3C433.9,190.4,434.4,194.9,434.4,200z M424.1,200L424.1,200c0-4.2-0.3-7.8-0.9-10.5
	s-1.5-5-2.5-6.6c-1-1.6-2.2-2.8-3.6-3.5c-1.4-0.7-2.8-1-4.2-1l0,0c-1.4,0-2.8,0.3-4.1,1c-1.3,0.7-2.5,1.8-3.5,3.5s-1.8,3.9-2.4,6.6
	c-0.6,2.8-0.9,6.3-0.9,10.5l0,0c0,4.2,0.3,7.8,0.9,10.5c0.6,2.8,1.4,5,2.4,6.6s2.2,2.8,3.5,3.5c1.3,0.7,2.7,1,4.1,1l0,0
	c1.5,0,2.9-0.3,4.2-1c1.3-0.7,2.5-1.8,3.6-3.5c1-1.6,1.9-3.9,2.5-6.6S424.1,204.2,424.1,200z M481.4,200L481.4,200
	c0,5.1-0.5,9.5-1.6,13.3c-1.1,3.8-2.6,6.9-4.5,9.3c-1.9,2.5-4.2,4.3-6.8,5.5c-2.6,1.2-5.5,1.8-8.5,1.8l0,0c-3,0-5.9-0.6-8.5-1.8
	c-2.6-1.2-4.9-3-6.8-5.5c-1.9-2.5-3.4-5.6-4.5-9.3c-1.1-3.8-1.6-8.2-1.6-13.3l0,0c0-5.1,0.5-9.6,1.6-13.3c1.1-3.8,2.6-6.9,4.5-9.3
	c1.9-2.5,4.2-4.3,6.8-5.5s5.4-1.8,8.5-1.8l0,0c3.1,0,5.9,0.6,8.5,1.8s4.9,3,6.8,5.5c1.9,2.5,3.4,5.6,4.5,9.3
	C480.9,190.4,481.4,194.9,481.4,200z M471.1,200L471.1,200c0-4.2-0.3-7.8-0.9-10.5s-1.5-5-2.5-6.6c-1-1.6-2.2-2.8-3.6-3.5
	c-1.4-0.7-2.8-1-4.2-1l0,0c-1.4,0-2.8,0.3-4.1,1c-1.3,0.7-2.5,1.8-3.5,3.5s-1.8,3.9-2.5,6.6c-0.6,2.8-0.9,6.3-0.9,10.5l0,0
	c0,4.2,0.3,7.8,0.9,10.5c0.6,2.8,1.4,5,2.5,6.6s2.2,2.8,3.5,3.5c1.3,0.7,2.7,1,4.1,1l0,0c1.5,0,2.9-0.3,4.2-1
	c1.3-0.7,2.5-1.8,3.6-3.5c1-1.6,1.9-3.9,2.5-6.6S471.1,204.2,471.1,200z"/>
</svg>
